<?xml version="1.0"?>
<svg xmlns="http://www.w3.org/2000/svg" viewBox="0 0 64 64" width="512" height="512"><g id="Favorite"><path fill="#A9CC66" d="M32,39A15,15,0,1,0,17,24,15.017,15.017,0,0,0,32,39ZM22.767,18h4.147a1,1,0,0,0,.952-.691l1.28-3.944a3,3,0,0,1,5.708,0l1.281,3.944a1,1,0,0,0,.951.691h4.147A3,3,0,0,1,43,23.427l-3.356,2.438a1,1,0,0,0-.363,1.118l1.282,3.944a2.956,2.956,0,0,1-1.09,3.354,2.955,2.955,0,0,1-3.527,0l-3.355-2.437a1,1,0,0,0-1.176,0l-3.355,2.437a3,3,0,0,1-4.617-3.354l1.282-3.944a1,1,0,0,0-.363-1.118L21,23.427A3,3,0,0,1,22.767,18Z"/><path fill="#ECA049" d="M22.179,21.809l3.356,2.438a3,3,0,0,1,1.09,3.354l-1.282,3.944a1,1,0,0,0,1.538,1.118l3.355-2.437a2.993,2.993,0,0,1,3.528,0l3.355,2.437a1,1,0,0,0,1.538-1.118L37.375,27.6a3,3,0,0,1,1.09-3.354l3.356-2.438A1,1,0,0,0,41.233,20H37.086a2.993,2.993,0,0,1-2.853-2.072l-1.282-3.945a1,1,0,0,0-1.9,0l-1.281,3.944A3,3,0,0,1,26.914,20H22.767a1,1,0,0,0-.588,1.809Z"/><path fill="#D1570D" d="M32,55.555C35.647,51.7,52,33.874,52,24a20,20,0,0,0-40,0C12,33.878,28.353,51.7,32,55.555ZM32,7A17,17,0,1,1,15,24,17.019,17.019,0,0,1,32,7Z"/><path fill="#477725" d="M32,60c11,0,17-2.643,17-4,0-.945-3.33-2.977-11.293-3.742-2.7,3.094-4.732,5.176-4.993,5.442a1,1,0,0,1-1.428,0c-.261-.266-2.29-2.348-4.993-5.442C18.33,53.023,15,55.055,15,56,15,57.357,21,60,32,60Z"/></g></svg>
