<svg height="56" viewBox="0 0 55 56" width="55" xmlns="http://www.w3.org/2000/svg"><g id="Page-1" fill="none" fill-rule="evenodd"><g id="014---Searching-Map" fill="#ECA049" fill-rule="nonzero"><path id="Shape" d="m17.15 11.93c1.7082251-1.1057827 3.5915864-1.9139036 5.57-2.39l.27-.11-15.28-6.62-2.49 7 8.47 3.66z"/><path id="Shape" d="m2.97 16.08-.84 2.33 3.12-1.35z"/><path id="Shape" d="m4.55 11.66-.91 2.53 4.54 1.95c.36875333.1570883.60808164.5191812.60808164.92s-.23932831.7629117-.60808164.92l-7 3-1.18 3.48 10.49-4.53c.69682-1.6364862 1.6337915-3.1599076 2.78-4.52z"/><path id="Shape" d="m44.81 0h-.81-25.94l13.37 5.77z"/><path id="Shape" d="m26.43 9c2.3016737-.07575183 4.5965015.29087747 6.76 1.08l3.81-1.58c.2521726-.10842517.5378274-.10842517.79 0l12.51 5.4-1.3-3.45-6.16-2.67c-.3687533-.15708826-.6080816-.51918116-.6080816-.92s.2393283-.76291174.6080816-.92l4-1.71-.9-2.53-14.11 6.08c-.2550505.11131315-.5449495.11131315-.8 0l-18.03-7.78h-4.3l-.33.93 17.55 7.57c.2257512.09820689.4073425.27623759.51.5z"/><path id="Shape" d="m48.11 7.87-.63-1.75-1.72.74z"/><path id="Shape" d="m35.66 11.23c1.4899926.8052084 2.859949 1.8150043 4.07 3 3.1351841 3.142165 4.9918562 7.3366047 5.21 11.77h9.64l-3.39-9.52-13.84-6z"/><path id="Shape" d="m9.06 26c.06004432-1.1886219.24097769-2.3680395.54-3.52l-8.14 3.52z"/><path id="Shape" d="m40.59 38.77c-.28.32-.55.65-.86 1-.6448292.6347569-1.3368083 1.2197633-2.07 1.75l2.66 2.66 2.82-2.82z"/><path id="Shape" d="m38.31 15.69c-4.5751426-4.5781425-11.4578505-5.948957-17.4379283-3.4730757-5.9800778 2.4758814-9.8794875 8.3107254-9.8794875 14.7830757s3.8994097 12.3071943 9.8794875 14.7830757c5.9800778 2.4758813 12.8627857 1.1050668 17.4379283-3.4730757 3.0130867-2.9924216 4.7075693-7.0634392 4.7075693-11.31s-1.6944826-8.3175784-4.7075693-11.31zm-11.31 25.31c-3.7148873.0091161-7.2792998-1.4670547-9.9-4.1-.7160285-.7163481-1.3530175-1.5075555-1.9-2.36-2.1660618-3.3924883-2.7672059-7.5531342-1.65-11.42l.1-.27c1.2382918-3.938394 4.1517585-7.129443 7.9615176-8.720056 3.8097592-1.590613 8.1273386-1.418599 11.7984824.470056 1.2906752.6555503 2.4660428 1.516811 3.48 2.55 2.8565411 2.8227045 4.3548218 6.7415652 4.11 10.75v.1c-.1452509 2.1118755-.7675214 4.1633169-1.82 6l-.31.52c-.5694146.861686-1.2298817 1.6596107-1.97 2.38-2.6207002 2.6329453-6.1851127 4.1091161-9.9 4.1z"/><path id="Shape" d="m54.71 51.12-8.56-8.56c-.1877666-.1893127-.4433625-.2957983-.71-.2957983s-.5222334.1064856-.71.2957983l-3.17 3.17c-.1893127.1877666-.2957983.4433625-.2957983.71s.1064856.5222334.2957983.71l8.56 8.56c.1877666.1893127.4433625.2957983.71.2957983s.5222334-.1064856.71-.2957983l3.17-3.17c.1893127-.1877666.2957983-.4433625.2957983-.71s-.1064856-.5222334-.2957983-.71z"/><path id="Shape" d="m39 26.38c-.1455137-2.964828-1.3938478-5.7682299-3.5-7.86-.7618725-.7844489-1.6303969-1.4577236-2.58-2l-8.35 3.59z"/><path id="Shape" d="m15.26 24.61c-.5920653 2.8687907-.1079851 5.8551388 1.36 8.39h18.07z"/><path id="Shape" d="m21.62 21.07c-.3687533-.1570883-.6080816-.5191812-.6080816-.92s.2393283-.7629117.6080816-.92l8.7-3.74c-4.1883484-1.2694752-8.7352671-.1144578-11.81 3-1.1778627 1.1793118-2.0943859 2.5932789-2.69 4.15l22 9.5c.5506292-1.1519467.9151536-2.3839039 1.08-3.65z"/></g></g></svg>